<svg width="167" height="31" viewBox="0 0 167 31" fill="none" xmlns="http://www.w3.org/2000/svg">
<g filter="url(#filter0_d_154_8)">
<path d="M25.868 22H24.888L20.912 13.992H9.768L5.876 22H4.896L15.368 0.496L25.868 22ZM20.576 13.18L15.312 2.512L10.16 13.18H20.576ZM29.8293 0.999998H31.0333C33.2173 0.999998 34.8973 1.57867 36.0733 2.736C37.268 3.89333 37.8653 5.54533 37.8653 7.692C37.8653 8.924 37.5667 10.0533 36.9693 11.08C36.3907 12.1067 35.5973 12.9187 34.5893 13.516C33.5813 14.0947 32.4707 14.384 31.2573 14.384H31.0613L38.2853 22H37.0813L30.7253 15.336V22H29.8293V0.999998ZM31.2293 13.572C32.2933 13.572 33.264 13.3107 34.1413 12.788C35.0187 12.2653 35.7093 11.5653 36.2133 10.688C36.7173 9.792 36.9693 8.80267 36.9693 7.72C36.9693 5.83467 36.456 4.37867 35.4293 3.352C34.4213 2.32533 32.9747 1.812 31.0893 1.812H30.7253V13.572H31.2293ZM45.4558 1.812H40.6118V0.999998H51.1678V1.812H46.3798V22H45.4558V1.812ZM66.8462 22L55.7302 10.324V22H54.8062V0.999998H55.7302V8.616L64.4942 0.999998H65.8102L55.9822 9.4L68.0782 22H66.8462ZM72.6184 3.1V22H71.8064V0.691999L87.2624 19.872V0.999998H88.0744V22.308L72.6184 3.1ZM103.37 22.56C101.41 22.56 99.5896 22.0467 97.9096 21.02C96.2296 19.9933 94.8949 18.6307 93.9056 16.932C92.9349 15.2147 92.4496 13.376 92.4496 11.416C92.4496 9.47467 92.9443 7.664 93.9336 5.984C94.9229 4.28533 96.2576 2.94133 97.9376 1.952C99.6176 0.943999 101.438 0.439999 103.398 0.439999C105.376 0.439999 107.196 0.934666 108.858 1.924C110.519 2.91333 111.835 4.25733 112.806 5.956C113.795 7.636 114.29 9.456 114.29 11.416C114.29 13.432 113.795 15.2987 112.806 17.016C111.835 18.7147 110.51 20.068 108.83 21.076C107.168 22.0653 105.348 22.56 103.37 22.56ZM103.37 21.748C105.162 21.748 106.823 21.2907 108.354 20.376C109.884 19.4427 111.098 18.192 111.994 16.624C112.908 15.0373 113.366 13.32 113.366 11.472C113.366 9.64267 112.918 7.944 112.022 6.376C111.126 4.808 109.912 3.56667 108.382 2.652C106.851 1.71867 105.19 1.252 103.398 1.252C101.587 1.252 99.9163 1.71867 98.3856 2.652C96.8549 3.56667 95.6323 4.808 94.7176 6.376C93.8216 7.944 93.3736 9.64267 93.3736 11.472C93.3736 13.32 93.8216 15.0373 94.7176 16.624C95.6323 18.192 96.8549 19.4427 98.3856 20.376C99.9163 21.2907 101.578 21.748 103.37 21.748ZM133.715 22.364L129.291 12.088L124.811 22.364L115.599 0.999998H116.579L124.839 20.096L128.815 10.968L124.503 0.999998H125.455L129.375 10.044L133.323 0.999998H134.191L129.823 11.08L133.771 20.18L142.059 0.999998H143.039L133.715 22.364ZM146.916 3.1V22H146.104V0.691999L161.56 19.872V0.999998H162.372V22.308L146.916 3.1Z" fill="black"/>
</g>
<defs>
<filter id="filter0_d_154_8" x="0.895996" y="0.440002" width="165.476" height="30.12" filterUnits="userSpaceOnUse" color-interpolation-filters="sRGB">
<feFlood flood-opacity="0" result="BackgroundImageFix"/>
<feColorMatrix in="SourceAlpha" type="matrix" values="0 0 0 0 0 0 0 0 0 0 0 0 0 0 0 0 0 0 127 0" result="hardAlpha"/>
<feOffset dy="4"/>
<feGaussianBlur stdDeviation="2"/>
<feComposite in2="hardAlpha" operator="out"/>
<feColorMatrix type="matrix" values="0 0 0 0 0 0 0 0 0 0 0 0 0 0 0 0 0 0 0.25 0"/>
<feBlend mode="normal" in2="BackgroundImageFix" result="effect1_dropShadow_154_8"/>
<feBlend mode="normal" in="SourceGraphic" in2="effect1_dropShadow_154_8" result="shape"/>
</filter>
</defs>
</svg>
