<?xml version="1.0" standalone="no"?>
<!DOCTYPE svg PUBLIC "-//W3C//DTD SVG 20010904//EN"
 "http://www.w3.org/TR/2001/REC-SVG-20010904/DTD/svg10.dtd">
<svg version="1.0" xmlns="http://www.w3.org/2000/svg"
 width="88.000000pt" height="27.000000pt" viewBox="0 0 88.000000 27.000000"
 preserveAspectRatio="xMidYMid meet">

<g transform="translate(0.000000,27.000000) scale(0.100000,-0.100000)"
fill="#000000" stroke="none">
<path d="M46 163 c-4 -32 -10 -73 -13 -91 -6 -38 13 -45 23 -7 7 30 28 28 32
-3 2 -12 8 -22 14 -22 7 0 8 23 3 68 -9 95 -15 112 -35 112 -14 0 -19 -12 -24
-57z m34 -8 c0 -25 -4 -45 -10 -45 -11 0 -13 33 -4 68 10 34 14 27 14 -23z"/>
<path d="M130 131 c0 -54 4 -91 10 -91 6 0 10 16 10 36 0 41 15 37 25 -6 12
-56 21 -30 21 58 l-1 87 -32 3 -33 3 0 -90z m50 34 c0 -24 -5 -35 -15 -35 -10
0 -15 11 -15 35 0 24 5 35 15 35 10 0 15 -11 15 -35z"/>
<path d="M220 210 c0 -5 5 -10 10 -10 6 0 10 -33 10 -80 0 -47 4 -80 10 -80 6
0 10 33 10 80 0 64 3 80 15 80 8 0 15 5 15 10 0 6 -16 10 -35 10 -19 0 -35 -4
-35 -10z"/>
<path d="M310 130 c0 -53 4 -90 10 -90 6 0 10 16 10 36 0 41 15 37 25 -6 4
-17 11 -30 17 -30 7 0 8 11 3 33 -11 43 -12 97 -1 126 6 18 5 22 -5 19 -8 -3
-19 -22 -26 -44 l-11 -39 -1 43 c-1 23 -5 42 -11 42 -6 0 -10 -37 -10 -90z"/>
<path d="M400 130 c0 -53 4 -90 10 -90 6 0 11 35 11 83 l2 82 8 -70 c11 -86
14 -95 34 -95 12 0 15 16 15 90 0 51 -4 90 -10 90 -6 0 -8 -33 -5 -82 5 -85
-5 -68 -20 35 -5 38 -10 47 -26 47 -17 0 -19 -8 -19 -90z"/>
<path d="M514 207 c-3 -8 -4 -47 -2 -88 l3 -74 30 0 30 0 0 85 0 85 -28 3
c-16 2 -29 -2 -33 -11z m46 -77 c0 -56 -3 -70 -15 -70 -12 0 -15 14 -15 70 0
56 3 70 15 70 12 0 15 -14 15 -70z"/>
<path d="M600 198 c0 -13 3 -53 7 -91 5 -55 9 -67 23 -67 21 0 29 26 31 105 2
59 3 54 15 -53 4 -41 9 -52 23 -52 14 0 20 11 25 46 9 69 7 134 -4 134 -6 0
-10 -30 -10 -71 0 -44 -4 -68 -10 -64 -5 3 -10 28 -10 55 0 57 -7 80 -25 80
-15 0 -24 -42 -26 -114 -2 -45 -3 -41 -12 32 -5 45 -14 82 -18 82 -5 0 -9 -10
-9 -22z"/>
<path d="M760 130 c0 -55 4 -90 10 -90 7 0 9 30 5 82 -5 85 5 67 20 -34 5 -39
10 -48 26 -48 17 0 19 8 19 90 0 53 -4 90 -10 90 -6 0 -11 -33 -11 -77 l-1
-78 -9 55 c-14 87 -18 100 -34 100 -12 0 -15 -17 -15 -90z"/>
</g>
</svg>
