<?xml version="1.0" standalone="no"?>
<!DOCTYPE svg PUBLIC "-//W3C//DTD SVG 20010904//EN"
 "http://www.w3.org/TR/2001/REC-SVG-20010904/DTD/svg10.dtd">
<svg version="1.0" xmlns="http://www.w3.org/2000/svg"
 width="224.000000pt" height="51.000000pt" viewBox="0 0 224.000000 51.000000"
 preserveAspectRatio="xMidYMid meet">

<g transform="translate(0.000000,51.000000) scale(0.100000,-0.100000)"
fill="#000000" stroke="none">
<path d="M866 374 c-20 -20 -23 -213 -4 -232 20 -20 76 -15 89 9 17 32 8 217
-11 229 -23 15 -57 12 -74 -6z m58 -30 c3 -9 6 -50 6 -93 0 -77 -10 -104 -36
-94 -11 4 -14 28 -14 97 0 51 3 96 7 99 11 12 31 7 37 -9z"/>
<path d="M1898 379 c-13 -7 -18 -23 -18 -57 0 -57 7 -68 43 -77 24 -6 27 -12
27 -46 0 -32 -3 -39 -20 -39 -16 0 -20 7 -20 30 0 20 -5 30 -15 30 -19 0 -21
-60 -3 -78 15 -15 61 -15 76 0 16 16 15 103 0 116 -7 5 -22 11 -33 14 -16 2
-21 12 -23 46 -3 37 -1 42 17 42 17 0 21 -6 21 -30 0 -20 5 -30 15 -30 24 0
20 67 -4 80 -24 12 -41 12 -63 -1z"/>
<path d="M201 278 c-7 -57 -14 -113 -17 -125 -3 -18 0 -23 15 -23 15 0 21 8
23 33 2 20 8 32 17 32 8 0 19 -15 23 -32 5 -19 15 -33 23 -33 18 0 18 -10 0
120 -8 58 -15 111 -15 118 0 7 -13 12 -29 12 l-29 0 -11 -102z m51 22 c0 -27
1 -55 2 -62 1 -6 -5 -13 -11 -15 -10 -4 -13 13 -13 61 0 77 19 91 22 16z"/>
<path d="M320 255 c0 -104 2 -125 15 -125 11 0 15 12 15 46 0 58 21 55 34 -4
6 -31 14 -42 27 -42 17 0 17 3 4 47 -11 35 -11 50 -3 61 13 15 17 98 6 125 -6
13 -19 17 -53 17 l-45 0 0 -125z m65 49 c0 -38 -4 -49 -17 -52 -15 -3 -18 4
-18 46 0 27 3 52 7 56 16 16 28 -4 28 -50z"/>
<path d="M440 370 c0 -5 9 -10 20 -10 19 0 20 -7 20 -115 0 -96 3 -115 15
-115 12 0 15 19 15 115 0 108 1 115 20 115 11 0 20 5 20 10 0 6 -25 10 -55 10
-30 0 -55 -4 -55 -10z"/>
<path d="M570 255 c0 -104 2 -125 15 -125 11 0 15 12 15 44 0 63 16 65 31 6 9
-36 18 -50 30 -50 17 0 17 3 3 48 -24 77 -26 105 -10 151 9 24 14 46 12 49
-14 13 -34 -12 -46 -55 -19 -70 -27 -72 -22 -3 4 50 2 60 -12 60 -14 0 -16
-16 -16 -125z"/>
<path d="M700 255 c0 -110 2 -125 17 -125 14 0 15 13 10 118 -6 130 5 124 22
-12 7 -49 14 -93 17 -98 3 -4 16 -8 30 -8 l24 0 0 125 c0 109 -2 125 -16 125
-15 0 -16 -13 -12 -111 7 -129 -3 -132 -21 -7 -15 110 -18 118 -47 118 l-24 0
0 -125z"/>
<path d="M984 323 c3 -32 8 -88 12 -125 6 -66 7 -68 34 -68 25 0 28 3 34 53 3
28 6 79 7 112 1 58 2 59 10 20 4 -22 8 -66 8 -97 1 -72 8 -88 36 -88 29 0 32
9 41 143 5 92 4 107 -9 107 -12 0 -16 -22 -23 -112 l-8 -113 -7 77 c-11 129
-17 148 -43 148 -20 0 -24 -6 -30 -46 -3 -26 -6 -75 -6 -110 0 -36 -4 -64 -10
-64 -6 0 -10 33 -10 79 0 99 -8 141 -27 141 -12 0 -14 -11 -9 -57z"/>
<path d="M1200 255 c0 -110 2 -125 17 -125 14 0 15 13 10 118 -6 130 5 124 22
-12 7 -49 14 -93 17 -98 3 -4 16 -8 30 -8 l24 0 0 125 c0 109 -2 125 -16 125
-15 0 -16 -13 -12 -111 7 -129 -3 -132 -21 -7 -15 110 -18 118 -47 118 l-24 0
0 -125z"/>
<path d="M1420 267 c0 -119 6 -137 46 -137 52 0 54 4 54 131 0 99 -3 119 -15
119 -12 0 -15 -19 -15 -110 0 -103 -1 -110 -20 -110 -19 0 -20 7 -20 110 0 91
-3 110 -15 110 -12 0 -15 -19 -15 -113z"/>
<path d="M1560 255 c0 -94 3 -125 13 -125 9 0 12 29 10 118 -1 111 -1 114 9
52 24 -159 28 -170 54 -170 l24 0 0 125 c0 100 -3 125 -14 125 -11 0 -13 -22
-10 -112 4 -119 -3 -110 -26 40 -11 66 -14 72 -36 72 l-24 0 0 -125z"/>
<path d="M1690 370 c0 -5 9 -10 20 -10 19 0 20 -7 20 -115 0 -96 3 -115 15
-115 12 0 15 19 15 115 0 108 1 115 20 115 11 0 20 5 20 10 0 6 -25 10 -55 10
-30 0 -55 -4 -55 -10z"/>
<path d="M1820 255 c0 -104 2 -125 15 -125 13 0 15 21 15 125 0 104 -2 125
-15 125 -13 0 -15 -21 -15 -125z"/>
<path d="M2000 371 c0 -5 9 -11 20 -14 18 -5 20 -14 20 -116 0 -92 3 -111 15
-111 12 0 15 19 15 115 0 96 3 115 15 115 8 0 15 5 15 10 0 6 -22 10 -50 10
-27 0 -50 -4 -50 -9z"/>
</g>
</svg>
